<?xml version="1.0" encoding="UTF-8" standalone="no"?>
<!-- Created with Inkscape (http://www.inkscape.org/) -->

<svg
   xmlns:dc="http://purl.org/dc/elements/1.1/"
   xmlns:cc="http://creativecommons.org/ns#"
   xmlns:rdf="http://www.w3.org/1999/02/22-rdf-syntax-ns#"
   xmlns:svg="http://www.w3.org/2000/svg"
   xmlns="http://www.w3.org/2000/svg"
   xmlns:sodipodi="http://sodipodi.sourceforge.net/DTD/sodipodi-0.dtd"
   xmlns:inkscape="http://www.inkscape.org/namespaces/inkscape"
   version="1.1"
   id="svg9359"
   xml:space="preserve"
   width="800"
   height="800"
   viewBox="0 0 800 800"
   sodipodi:docname="tattoo-machine-pdv.svg"
   inkscape:version="0.92.4 (5da689c313, 2019-01-14)"><metadata
     id="metadata9365"><rdf:RDF><cc:Work
         rdf:about=""><dc:format>image/svg+xml</dc:format><dc:type
           rdf:resource="http://purl.org/dc/dcmitype/StillImage" /><dc:title></dc:title></cc:Work></rdf:RDF></metadata><defs
     id="defs9363"><clipPath
       clipPathUnits="userSpaceOnUse"
       id="clipPath9375"><path
         d="M 0,600 H 600 V 0 H 0 Z"
         id="path9373"
         inkscape:connector-curvature="0" /></clipPath></defs><sodipodi:namedview
     pagecolor="#ffffff"
     bordercolor="#666666"
     borderopacity="1"
     objecttolerance="10"
     gridtolerance="10"
     guidetolerance="10"
     inkscape:pageopacity="0"
     inkscape:pageshadow="2"
     inkscape:window-width="1920"
     inkscape:window-height="1018"
     id="namedview9361"
     showgrid="false"
     inkscape:zoom="0.69764624"
     inkscape:cx="405.08475"
     inkscape:cy="340.67797"
     inkscape:window-x="-8"
     inkscape:window-y="-8"
     inkscape:window-maximized="1"
     inkscape:current-layer="g9367" /><g
     id="g9367"
     inkscape:groupmode="layer"
     inkscape:label="tattoo-machine-pdv"
     transform="matrix(1.3333333,0,0,-1.3333333,0,800)"><g
       id="g9369"><g
         id="g9371"
         clip-path="url(#clipPath9375)"><path
           d="m 248.3,506.635 c 0.637,0 1.275,0.101 1.896,0.31 l 18.939,6.401 c 3.779,1.277 5.551,6.128 3.959,10.836 -1.328,3.933 -4.586,6.521 -7.824,6.521 -0.638,0 -1.274,-0.1 -1.895,-0.31 l -18.941,-6.401 c -3.777,-1.277 -5.55,-6.128 -3.96,-10.835 1.33,-3.933 4.587,-6.522 7.826,-6.522 m 127.534,-64.607 c 0,3.211 -2.613,5.824 -5.824,5.824 -3.211,0 -5.824,-2.613 -5.824,-5.824 0,-3.211 2.613,-5.824 5.824,-5.824 3.211,0 5.824,2.613 5.824,5.824 m 9.17,0 c 0,-8.269 -6.727,-14.994 -14.994,-14.994 -8.268,0 -14.994,6.725 -14.994,14.994 0,8.266 6.726,14.994 14.994,14.994 8.267,0 14.994,-6.728 14.994,-14.994 m 3.232,0 c 0,10.05 -8.175,18.227 -18.226,18.227 -10.049,0 -18.227,-8.177 -18.227,-18.227 0,-10.05 8.178,-18.228 18.227,-18.228 10.051,0 18.226,8.178 18.226,18.228 m -35.879,-55.573 c -0.209,0.577 -0.845,0.875 -1.421,0.669 l -85.545,-30.812 -4.468,-1.609 -49.936,-17.989 -11.295,-4.066 c -0.576,-0.207 -0.875,-0.844 -0.668,-1.421 0.163,-0.452 0.59,-0.734 1.045,-0.734 0.125,0 0.252,0.02 0.377,0.065 l 10.416,3.753 140.826,50.723 c 0.578,0.208 0.876,0.844 0.669,1.421 M 192,303.371 c 2.147,2.094 3.487,5.014 3.487,8.244 0,2.237 -0.652,4.322 -1.761,6.093 -2.038,3.254 -5.647,5.43 -9.763,5.43 -3.125,0 -5.958,-1.253 -8.036,-3.28 -2.147,-2.095 -3.487,-5.014 -3.487,-8.243 0,-2.239 0.651,-4.323 1.76,-6.093 2.039,-3.256 5.647,-5.432 9.763,-5.432 3.124,0 5.958,1.254 8.037,3.281 m 205.383,138.827 c 0,-15.107 -12.313,-27.558 -27.418,-27.558 -0.469,0 -0.979,0.024 -1.44,0.047 -11.373,0.572 -21.263,8.135 -24.832,18.449 -0.966,2.793 -1.925,5.828 -1.925,8.944 v -0.052 c 0,-3.127 0.957,-6.13 1.925,-8.933 3.569,-10.314 13.434,-17.856 24.807,-18.429 -1.771,-11.032 -4.445,-21.802 -8.281,-31.841 0.332,-4.576 -2.332,-9.004 -6.856,-10.664 l -8.234,-3.027 c 0.975,-0.639 1.775,-1.572 2.197,-2.756 1.031,-2.889 -0.472,-6.066 -3.361,-7.097 l -19.852,-7.08 c -0.617,-0.22 -1.246,-0.325 -1.865,-0.325 -2.281,0 -4.42,1.418 -5.23,3.69 -0.381,1.066 -0.411,2.172 -0.157,3.193 l -40.438,-14.832 c 1.559,-0.523 2.88,-1.709 3.475,-3.379 1.03,-2.887 -0.476,-6.065 -3.365,-7.094 l -19.855,-7.081 c -0.616,-0.22 -1.246,-0.325 -1.865,-0.325 -2.281,0 -4.421,1.417 -5.23,3.69 -0.549,1.533 -0.364,3.138 0.347,4.47 l -4.29,-1.572 2.462,-6.171 c 2.996,-7.511 -0.115,-15.813 -6.953,-18.541 l -2.106,-0.841 7.981,-20.845 c 5.531,-1.117 9.689,-4.054 10.793,-8.3 0.08,-0.311 0.119,-0.624 0.166,-0.938 2.906,0.779 5.973,-0.748 7.022,-3.629 1.111,-3.045 -0.457,-6.412 -3.501,-7.523 l -38.876,-14.182 c -0.664,-0.242 -1.342,-0.355 -2.01,-0.355 -2.396,0 -4.645,1.476 -5.512,3.857 -1.111,3.045 0.456,6.412 3.5,7.523 l 0.711,0.26 c -1.246,1.227 -2.15,2.664 -2.578,4.311 -0.856,3.295 0.285,6.797 2.832,9.916 l -7.354,19.203 -22.65,-9.037 c -6.836,-2.729 -14.809,1.148 -17.807,8.66 l -4.113,10.311 -17.927,2.166 c -3.959,0.478 -6.78,4.075 -6.301,8.034 0.48,3.958 4.082,6.781 8.033,6.301 l 15.733,-1.901 c 1.373,2.723 3.616,4.928 6.554,6.099 l 23.203,9.258 -0.498,1.303 c -1.041,2.715 -1.197,5.549 -0.625,8.194 L 183.03,376.96 c -2.386,5.821 0.397,12.473 6.22,14.861 5.821,2.387 12.473,-0.398 14.86,-6.219 l 12.289,-29.974 c 3.107,-1.558 5.672,-4.223 7.014,-7.726 l 0.315,-0.825 15.007,5.504 c -0.582,0.711 -1.062,1.523 -1.377,2.443 -0.255,0.735 -0.388,1.483 -0.422,2.223 l -11.498,-4.23 c -0.557,-0.204 -1.128,-0.303 -1.689,-0.303 -1.994,0 -3.867,1.228 -4.596,3.207 -0.934,2.539 0.367,5.353 2.904,6.286 l 52.608,19.355 c 2.538,0.932 5.351,-0.366 6.285,-2.905 0.933,-2.537 -0.367,-5.351 -2.905,-6.285 l -10.132,-3.728 c 0.64,-0.744 1.158,-1.617 1.498,-2.603 0.234,-0.681 0.361,-1.372 0.407,-2.058 l 37.973,13.929 c -0.668,0.759 -1.221,1.642 -1.568,2.659 -0.301,0.871 -0.432,1.758 -0.426,2.63 l -12.604,-4.637 c -0.558,-0.204 -1.129,-0.303 -1.69,-0.303 -1.994,0 -3.867,1.228 -4.595,3.207 -0.934,2.537 0.366,5.353 2.904,6.285 l 49.987,18.391 c 0.556,2.174 1.053,4.369 1.508,6.576 0.088,0.427 0.185,0.852 0.269,1.28 0.151,0.769 0.283,1.542 0.424,2.316 0.076,0.421 0.154,0.842 0.227,1.264 0.132,0.763 0.253,1.531 0.373,2.296 0.002,0.014 0.004,0.03 0.007,0.045 l 0.094,0.621 c -0.121,0.04 -0.242,0.073 -0.363,0.118 -0.129,0.048 -0.256,0.107 -0.383,0.164 -0.748,0.329 -1.48,0.783 -2.191,1.364 -0.313,0.256 -0.623,0.54 -0.928,0.843 -0.492,0.489 -0.973,1.036 -1.44,1.64 -0.23,0.297 -0.457,0.609 -0.681,0.933 -0.379,0.551 -0.75,1.132 -1.111,1.757 -0.184,0.318 -0.366,0.646 -0.545,0.982 -0.307,0.584 -0.604,1.201 -0.895,1.836 -0.152,0.334 -0.303,0.67 -0.451,1.018 -0.256,0.607 -0.506,1.24 -0.748,1.888 -0.129,0.344 -0.254,0.692 -0.377,1.045 -0.219,0.627 -0.428,1.273 -0.631,1.933 -0.109,0.351 -0.215,0.704 -0.32,1.065 -0.184,0.642 -0.36,1.299 -0.53,1.967 -0.091,0.36 -0.183,0.718 -0.269,1.084 -0.156,0.654 -0.301,1.324 -0.443,2 -0.075,0.365 -0.151,0.732 -0.221,1.102 -0.129,0.667 -0.252,1.341 -0.367,2.027 -0.061,0.367 -0.118,0.744 -0.174,1.119 -0.106,0.676 -0.203,1.36 -0.291,2.053 -0.049,0.375 -0.098,0.752 -0.141,1.132 -0.08,0.684 -0.154,1.378 -0.221,2.079 -0.037,0.38 -0.072,0.759 -0.103,1.144 -0.059,0.695 -0.109,1.396 -0.154,2.103 -0.024,0.384 -0.041,0.772 -0.061,1.159 -0.088,1.732 -0.139,3.494 -0.139,5.285 0,15.84 3.524,29.583 8.686,36.469 4,-12.174 6.832,-28.273 7.34,-45.568 0.002,0.005 0.002,0.011 0.004,0.015 4.033,10.118 13.92,17.455 25.457,17.455 -11.537,0 -21.424,-7.316 -25.457,-17.433 -0.494,17.351 -3.332,33.361 -7.344,45.572 -0.027,0.083 -0.055,0.188 -0.082,0.282 l -0.022,-0.007 -4.484,-1.415 -6.682,21.187 35.737,11.269 6.679,-21.186 -5.779,-1.823 c 3.52,-10.739 6.096,-23.177 7.463,-36.446 15.094,0 27.344,-12.459 27.344,-27.555 m -69.438,91.405 18.942,6.401 c 3.777,1.277 5.551,6.128 3.959,10.835 -1.59,4.707 -5.944,7.488 -9.719,6.212 l -18.941,-6.402 c -3.778,-1.276 -5.551,-6.127 -3.961,-10.835 1.591,-4.707 5.945,-7.488 9.72,-6.211 m -9.468,-7.767 c 0.31,-0.93 1.175,-1.518 2.105,-1.518 0.234,0 0.471,0.037 0.705,0.116 l 38.182,12.773 c 1.164,0.389 1.791,1.648 1.402,2.811 -0.389,1.164 -1.648,1.793 -2.812,1.402 l -38.18,-12.773 c -1.164,-0.389 -1.791,-1.648 -1.402,-2.811 m -68.628,-62.763 c -0.932,2.538 -3.747,3.837 -6.284,2.904 l -52.607,-19.354 c -2.539,-0.934 -3.838,-3.748 -2.906,-6.286 0.73,-1.98 2.603,-3.207 4.597,-3.207 0.56,0 1.131,0.098 1.689,0.303 l 52.608,19.355 c 2.537,0.932 3.838,3.747 2.903,6.285 m 22.202,-79.558 -1.139,3.101 -43.07,-15.683 -0.38,1.043 43.067,15.682 -0.701,1.907 -43.087,-15.681 -0.379,1.043 43.083,15.681 -0.701,1.905 -43.102,-15.68 -0.38,1.043 43.099,15.68 -0.7,1.906 -43.119,-15.679 -0.379,1.043 43.114,15.679 -0.701,1.907 -43.134,-15.678 -0.38,1.043 43.131,15.677 -0.7,1.907 -43.151,-15.678 -0.38,1.044 43.147,15.677 -0.7,1.906 -43.166,-15.676 -0.381,1.043 43.162,15.675 -0.7,1.907 -43.183,-15.676 -0.379,1.045 43.178,15.674 -0.699,1.905 -43.199,-15.674 -0.379,1.045 43.194,15.672 -0.7,1.906 -43.215,-15.673 -0.38,1.045 43.21,15.671 -0.701,1.906 -43.23,-15.672 -0.378,1.045 43.226,15.67 -0.701,1.904 -43.247,-15.668 -0.379,1.043 43.244,15.668 -0.701,1.908 -43.264,-15.67 -0.379,1.045 43.258,15.668 -0.699,1.905 -43.279,-15.668 -0.379,1.045 43.274,15.666 -0.7,1.906 -43.295,-15.667 -0.379,1.045 43.29,15.664 -0.7,1.907 -43.313,-15.666 -0.377,1.045 43.306,15.664 -0.7,1.906 -43.328,-15.664 -0.377,1.043 43.321,15.662 -0.7,1.907 -43.345,-15.663 -0.377,1.045 43.338,15.661 -0.7,1.907 -43.361,-15.662 -0.377,1.044 43.354,15.66 -0.7,1.906 -43.377,-15.66 -0.377,1.045 43.37,15.657 -0.7,1.907 -43.393,-15.66 -0.377,1.045 43.386,15.656 -0.7,1.907 -43.41,-15.657 -0.375,1.043 43.401,15.656 -1.538,4.186 -48.999,-18.012 25.824,-70.254 z M 302.93,118.357 c 3.463,3.702 4.66,9.217 2.595,14.204 l -12.526,30.269 c 3.345,3.69 4.841,7.941 3.608,11.746 -0.372,1.147 -0.988,2.17 -1.773,3.084 l 0.341,0.121 c 3.054,1.084 4.65,4.44 3.564,7.494 -1.085,3.053 -4.441,4.649 -7.493,3.563 l -38.993,-13.856 c -3.055,-1.086 -4.65,-4.439 -3.565,-7.494 0.855,-2.404 3.116,-3.904 5.529,-3.904 0.537,0 1.079,0.094 1.617,0.25 0.036,-0.797 0.153,-1.584 0.403,-2.352 1.383,-4.271 5.879,-6.982 11.654,-7.699 l 13.003,-31.416 c 2.049,-4.949 6.734,-7.998 11.755,-8.215 l 9.837,-23.968 3.119,1.279 2.944,-6.768 4.074,1.774 -2.906,6.681 3.045,1.25 z m -51.974,60.047 37.023,13.377 c 2.309,0.832 3.503,3.379 2.669,5.688 -0.834,2.308 -3.381,3.5 -5.688,2.668 L 247.937,186.76 c -2.308,-0.832 -3.503,-3.379 -2.669,-5.688 0.654,-1.808 2.36,-2.933 4.178,-2.933 0.502,0 1.012,0.086 1.51,0.265 m -3.885,10.297 37.021,13.377 c 2.308,0.834 3.502,3.381 2.668,5.69 -0.834,2.306 -3.381,3.5 -5.687,2.668 L 244.05,197.059 c -2.307,-0.834 -3.503,-3.381 -2.669,-5.688 0.655,-1.81 2.36,-2.935 4.178,-2.935 0.502,0 1.012,0.085 1.512,0.265 m -3.89,10.301 37.024,13.375 c 2.306,0.832 3.502,3.379 2.668,5.687 -0.834,2.307 -3.377,3.502 -5.689,2.668 l -37.023,-13.375 c -2.307,-0.832 -3.502,-3.378 -2.668,-5.687 0.654,-1.811 2.36,-2.934 4.179,-2.934 0.501,0 1.01,0.084 1.509,0.266 m -3.888,10.299 37.023,13.377 c 2.309,0.832 3.503,3.379 2.669,5.685 -0.834,2.309 -3.381,3.502 -5.689,2.67 l -37.022,-13.377 c -2.308,-0.834 -3.502,-3.381 -2.668,-5.687 0.652,-1.811 2.359,-2.936 4.178,-2.936 0.5,0 1.011,0.086 1.509,0.268 m -3.886,10.297 37.021,13.377 c 2.308,0.832 3.503,3.379 2.669,5.687 -0.834,2.307 -3.381,3.5 -5.687,2.668 l -37.024,-13.377 c -2.307,-0.832 -3.502,-3.379 -2.669,-5.687 0.655,-1.809 2.362,-2.934 4.18,-2.934 0.502,0 1.012,0.086 1.51,0.266 m -3.889,10.298 37.024,13.375 c 2.307,0.833 3.502,3.379 2.668,5.688 -0.834,2.307 -3.38,3.502 -5.688,2.668 L 228.5,238.252 c -2.308,-0.832 -3.503,-3.379 -2.669,-5.688 0.654,-1.81 2.359,-2.935 4.178,-2.935 0.501,0 1.011,0.086 1.509,0.267 m -3.887,10.297 37.023,13.377 c 2.308,0.832 3.503,3.379 2.67,5.69 -0.836,2.306 -3.381,3.502 -5.69,2.668 l -37.022,-13.377 c -2.309,-0.832 -3.502,-3.381 -2.668,-5.69 0.652,-1.808 2.359,-2.933 4.178,-2.933 0.5,0 1.011,0.086 1.509,0.265 m -43.668,80.724 c -1.814,0 -3.505,-0.531 -4.937,-1.433 -2.617,-1.649 -4.365,-4.555 -4.365,-7.869 0,-2.513 1.004,-4.79 2.629,-6.466 1.691,-1.746 4.055,-2.837 6.673,-2.837 1.815,0 3.505,0.531 4.938,1.433 2.617,1.649 4.364,4.554 4.364,7.87 0,2.511 -1.005,4.79 -2.628,6.466 -1.691,1.745 -4.056,2.836 -6.674,2.836 m -11.105,207.755 c 1.563,-2.085 4.047,-3.444 6.848,-3.444 4.719,0 8.558,3.839 8.558,8.559 0,1.304 -0.302,2.535 -0.826,3.643 -2.707,-5.201 -8.139,-8.767 -14.398,-8.767 -0.061,0 -0.12,0.009 -0.182,0.009 m -7.652,16.222 c 0,-4.321 3.514,-7.835 7.834,-7.835 4.322,0 7.836,3.514 7.836,7.835 0,4.32 -3.514,7.835 -7.836,7.835 -4.32,0 -7.834,-3.515 -7.834,-7.835 m 14.5,-28.836 c -0.122,0 -0.238,0.015 -0.358,0.018 0.529,-5.247 4.971,-9.357 10.354,-9.357 5.738,0 10.406,4.668 10.406,10.407 0,3.595 -1.834,6.769 -4.613,8.639 -2.935,-5.751 -8.903,-9.707 -15.789,-9.707 m -46.635,35.27 0.397,-0.282 9.279,13.072 -0.412,0.292 z m 4.179,16.691 -0.537,0.382 -9.278,-13.073 0.552,-0.391 z m 163.558,-61.393 c -0.196,0.581 -0.826,0.891 -1.408,0.695 l -43.909,-14.897 -15.23,-5.167 -57.487,-19.506 c -0.582,-0.197 -0.893,-0.828 -0.695,-1.408 0.156,-0.463 0.588,-0.754 1.051,-0.754 0.119,0 0.238,0.019 0.357,0.059 l 64.983,22.048 7.144,2.424 44.499,15.098 c 0.581,0.197 0.893,0.828 0.695,1.408 m -147.675,9.285 13.004,6.486 c -2.437,2.899 -3.947,6.587 -4.122,10.619 -0.282,0.264 -0.557,0.536 -0.821,0.82 l -19.92,14.907 -4.812,-6.858 c -0.649,-0.925 -1.682,-1.419 -2.731,-1.419 -0.66,0 -1.328,0.196 -1.91,0.605 -1.506,1.056 -1.871,3.134 -0.815,4.641 l 0.483,0.689 -1.281,0.911 c -0.611,-0.784 -1.522,-1.213 -2.454,-1.213 -0.623,0 -1.252,0.186 -1.798,0.573 -1.369,0.969 -1.709,2.836 -0.809,4.231 l -1.824,1.295 c -0.467,-0.296 -1,-0.467 -1.545,-0.467 -0.584,0 -1.175,0.176 -1.687,0.543 -1.303,0.933 -1.602,2.746 -0.67,4.049 l 0.717,1.002 c -0.38,0.033 -0.757,0.145 -1.089,0.386 -0.97,0.703 -1.185,2.061 -0.482,3.031 l 9.969,13.751 c 0.703,0.971 2.06,1.187 3.031,0.483 0.289,-0.208 0.502,-0.479 0.651,-0.775 l 0.49,0.684 c 0.933,1.303 2.746,1.603 4.05,0.67 0.677,-0.485 1.077,-1.208 1.18,-1.974 l 2.344,-1.664 c 1.041,0.679 2.429,0.701 3.506,-0.06 1.078,-0.764 1.517,-2.084 1.218,-3.293 l 1.38,-0.98 c 1.103,1.29 3.017,1.567 4.433,0.573 1.506,-1.057 1.873,-3.135 0.814,-4.642 l -3.98,-5.674 10.097,-7.556 c 2.229,6.304 8.233,10.84 15.29,10.84 7.52,0 13.843,-5.148 15.678,-12.099 4.226,-2.509 7.336,-6.706 8.355,-11.671 1.82,-0.665 3.525,-1.56 5.08,-2.665 2.697,-1.918 4.945,-4.428 6.527,-7.357 4.254,-3.926 6.938,-9.529 6.938,-15.761 0,-11.841 -9.631,-21.474 -21.474,-21.474 -7.972,0 -14.929,4.376 -18.633,10.844 -2.428,2.132 -4.391,4.785 -5.669,7.802 1.057,-9.14 7.168,-16.757 15.46,-19.983 l 20.062,1.074 c 7.862,4.076 13.252,12.287 13.252,21.737 0,6.455 -2.517,12.329 -6.614,16.706 l 27.34,-8.253 c -0.73,-2.154 -0.769,-4.71 0.08,-7.223 1.448,-4.286 5.1,-7.278 8.878,-7.278 0.771,0 1.527,0.125 2.25,0.369 l 16.798,5.677 1.796,-0.542 11.164,3.735 c 1.164,0.39 2.423,-0.238 2.812,-1.402 0.388,-1.164 -0.239,-2.422 -1.403,-2.811 l -5.756,-1.926 c 0.41,-0.206 0.806,-0.427 1.198,-0.658 l 84.439,28.498 1.422,-4.21 -61.75,-20.84 6.705,-19.353 -21.55,-7.468 c -0.023,-0.076 -0.035,-0.152 -0.057,-0.229 -0.245,-0.812 -0.551,-1.587 -0.884,-2.345 l 25.834,9.505 c 2.537,0.931 5.352,-0.367 6.286,-2.904 0.933,-2.538 -0.368,-5.353 -2.905,-6.285 L 262.092,462.98 c -0.556,-0.205 -1.128,-0.303 -1.689,-0.303 -1.994,0 -3.867,1.227 -4.596,3.207 -0.785,2.136 0.024,4.455 1.809,5.696 l -4.676,1.411 -76.482,-26.499 -1.465,4.226 -22.207,-7.545 c -0.711,-0.242 -1.435,-0.355 -2.146,-0.355 -2.776,0 -5.366,1.747 -6.309,4.521 -1.184,3.486 0.681,7.271 4.166,8.455 l 22.132,7.519 -1.445,4.169 47.494,16.456 -5.781,1.745 -29.455,-1.578 -9.967,-4.971 c -7.812,-3.895 -16.902,-2.336 -22.994,3.205 l -1.609,-0.086 -0.098,1.844 c -1.099,1.273 -2.074,2.682 -2.859,4.254 -5.065,10.156 -0.938,22.495 9.218,27.56 m 173.357,-70.623 -42.263,-15.314 0.379,-1.045 42.267,15.316 0.701,-1.906 -42.246,-15.315 0.379,-1.044 42.25,15.316 0.701,-1.906 -42.231,-15.316 0.379,-1.044 42.235,15.317 0.701,-1.906 -42.214,-15.316 0.379,-1.045 42.218,15.318 0.701,-1.906 -42.198,-15.319 0.379,-1.043 42.202,15.319 0.701,-1.907 -42.183,-15.32 0.38,-1.043 42.186,15.321 0.701,-1.907 -42.166,-15.319 0.38,-1.043 42.169,15.321 0.701,-1.907 -42.151,-15.322 0.38,-1.043 42.154,15.323 0.701,-1.907 -42.135,-15.323 0.38,-1.043 42.138,15.324 0.701,-1.907 -42.119,-15.324 0.38,-1.043 42.122,15.324 0.701,-1.906 -42.103,-15.324 0.38,-1.045 42.106,15.326 0.701,-1.908 -42.086,-15.324 0.38,-1.043 42.089,15.326 1.01,-2.744 -49,-18.012 -25.824,70.254 48.999,18.011 1.668,-4.538 -42.421,-15.303 0.376,-1.045 42.428,15.306 0.701,-1.907 -42.405,-15.303 0.377,-1.045 42.411,15.305 0.701,-1.907 -42.39,-15.303 0.377,-1.044 42.396,15.306 0.701,-1.908 -42.374,-15.304 0.377,-1.044 42.38,15.305 0.701,-1.904 -42.358,-15.307 0.378,-1.045 42.363,15.309 0.701,-1.907 -42.342,-15.308 0.377,-1.045 42.348,15.311 0.701,-1.907 -42.325,-15.308 0.377,-1.044 42.331,15.311 0.701,-1.908 -42.31,-15.309 0.378,-1.045 42.315,15.311 0.699,-1.905 -42.292,-15.312 0.379,-1.044 42.298,15.312 0.699,-1.905 -42.276,-15.312 0.378,-1.045 42.283,15.314 z"
           style="fill:#000000;fill-opacity:1;fill-rule:nonzero;stroke:none"
           id="path9377"
           inkscape:connector-curvature="0" /></g></g></g></svg>